# xmcd
#
# Track frame offsets: 
#        187
#        18570
#        37545
#        55890
#
# Disc length: 996 seconds
#
# Revision: 1
# Processed by: cddbd v1.5.2PL0 Copyright (c) Steve Scherf et al.
# Submitted via: ExactAudioCopy v1.3
#
DISCID=2403e204
DTITLE=SMAP - セロリ - Single
DYEAR=1997
DGENRE=JPop
TTITLE0=セロリ
TTITLE1=まぁいいか
TTITLE2=セロリ (music track)
TTITLE3=まぁいいか (music track)
EXTD=YEAR: 1997
EXTT0=
EXTT1=
EXTT2=
EXTT3=
PLAYORDER=
